<svg aria-hidden="true" style="position: absolute; width: 0; height: 0; overflow: hidden;" version="1.1" xmlns="http://www.w3.org/2000/svg" xmlns:xlink="http://www.w3.org/1999/xlink">
<defs>
<symbol id="icon-fifth-page" viewBox="0 0 31 32">
<path d="M16.848 11.333c0-0.338 0.134-0.661 0.373-0.9s0.562-0.373 0.9-0.373h5.939c0.337 0 0.661 0.134 0.9 0.373s0.373 0.562 0.373 0.9c0 0.338-0.134 0.661-0.373 0.9s-0.562 0.373-0.9 0.373h-5.939c-0.337 0-0.661-0.134-0.9-0.373s-0.373-0.562-0.373-0.9zM18.121 19.394c-0.337 0-0.661 0.134-0.9 0.373s-0.373 0.562-0.373 0.9c0 0.338 0.134 0.661 0.373 0.9s0.562 0.373 0.9 0.373h5.939c0.337 0 0.661-0.134 0.9-0.373s0.373-0.562 0.373-0.9c0-0.337-0.134-0.661-0.373-0.9s-0.562-0.373-0.9-0.373h-5.939zM13.93 10.536c0.125-0.117 0.225-0.257 0.295-0.413s0.107-0.325 0.11-0.496c0.003-0.171-0.028-0.341-0.092-0.499s-0.159-0.302-0.28-0.423c-0.121-0.121-0.265-0.216-0.423-0.28s-0.328-0.095-0.499-0.092c-0.171 0.003-0.339 0.040-0.496 0.11s-0.297 0.17-0.413 0.295l-2.495 2.495-0.798-0.798c-0.241-0.225-0.56-0.347-0.89-0.341s-0.644 0.139-0.877 0.373c-0.233 0.233-0.367 0.548-0.373 0.877s0.117 0.649 0.341 0.89l1.697 1.697c0.239 0.238 0.562 0.372 0.899 0.372s0.661-0.134 0.899-0.372l3.394-3.394zM13.93 18.070c0.238 0.239 0.372 0.562 0.372 0.899s-0.134 0.661-0.372 0.899l-3.394 3.394c-0.239 0.238-0.562 0.372-0.899 0.372s-0.661-0.134-0.899-0.372l-1.697-1.697c-0.125-0.116-0.225-0.257-0.295-0.413s-0.107-0.325-0.11-0.496c-0.003-0.171 0.028-0.34 0.092-0.499s0.159-0.302 0.28-0.423c0.121-0.121 0.265-0.216 0.423-0.28s0.328-0.095 0.499-0.093c0.171 0.003 0.339 0.040 0.496 0.11s0.297 0.17 0.413 0.295l0.798 0.798 2.495-2.495c0.239-0.238 0.562-0.372 0.899-0.372s0.661 0.134 0.899 0.372zM6.242 0.727c-1.463 0-2.865 0.581-3.9 1.615s-1.615 2.437-1.615 3.9v19.515c0 1.463 0.581 2.866 1.615 3.9s2.437 1.615 3.9 1.615h19.515c1.463 0 2.866-0.581 3.9-1.615s1.615-2.437 1.615-3.9v-19.515c0-1.463-0.581-2.865-1.615-3.9s-2.437-1.615-3.9-1.615h-19.515zM3.273 6.242c0-1.639 1.33-2.97 2.97-2.97h19.515c1.639 0 2.97 1.33 2.97 2.97v19.515c0 0.788-0.313 1.543-0.87 2.1s-1.312 0.87-2.1 0.87h-19.515c-0.788 0-1.543-0.313-2.1-0.87s-0.87-1.312-0.87-2.1v-19.515z"></path>
</symbol>
<symbol id="icon-first-page" viewBox="0 0 35 32">
<path d="M34.058 12.491h-1.17v-7.018c0-0.31-0.123-0.608-0.343-0.827s-0.517-0.343-0.827-0.343h-28.070c-0.277 0.005-0.546-0.089-0.761-0.265s-0.359-0.422-0.409-0.694v-0.421c0.050-0.272 0.195-0.518 0.409-0.694s0.484-0.27 0.761-0.265h27.579c0.31 0 0.608-0.123 0.827-0.343s0.343-0.517 0.343-0.827-0.123-0.608-0.343-0.827c-0.219-0.219-0.517-0.343-0.827-0.343h-27.579c-0.931 0-1.823 0.37-2.481 1.028s-1.028 1.55-1.028 2.481c-0.008 0.14-0.008 0.281 0 0.421v24.058c0.005 0.63 0.133 1.252 0.378 1.832s0.602 1.106 1.051 1.548c0.449 0.442 0.98 0.791 1.563 1.028s1.208 0.356 1.838 0.352h26.749c0.31 0 0.608-0.123 0.827-0.343s0.343-0.517 0.343-0.827v-7.017h1.17c0.31 0 0.608-0.123 0.827-0.343s0.343-0.517 0.343-0.827v-9.357c0-0.31-0.123-0.608-0.343-0.827s-0.517-0.343-0.827-0.343zM30.549 30.034h-25.579c-0.651 0.006-1.277-0.245-1.744-0.698s-0.735-1.073-0.748-1.723v-21.111c0.38 0.11 0.775 0.158 1.17 0.14h26.901v5.848h-8.187c-1.551 0-3.038 0.616-4.135 1.713s-1.713 2.584-1.713 4.135c0 1.551 0.616 3.038 1.713 4.135s2.584 1.713 4.135 1.713h8.187v5.848zM32.888 21.847h-10.526c-0.931 0-1.823-0.37-2.481-1.028s-1.028-1.55-1.028-2.481c0-0.931 0.37-1.823 1.028-2.481s1.55-1.028 2.481-1.028h10.526v7.018z"></path>
<path d="M23.544 20.094c0.969 0 1.754-0.786 1.754-1.754s-0.785-1.754-1.754-1.754c-0.969 0-1.754 0.785-1.754 1.754s0.786 1.754 1.754 1.754z"></path>
</symbol>
<symbol id="icon-fourth-page" viewBox="0 0 26 32">
<path fill="none"  stroke-linejoin="miter" stroke-linecap="butt" stroke-miterlimit="4" stroke-width="2.2857" d="M12.951 13.080c3.226 0 5.841-2.615 5.841-5.841s-2.615-5.841-5.841-5.841c-3.226 0-5.841 2.615-5.841 5.841s2.615 5.841 5.841 5.841z"></path>
<path fill="none" stroke-linejoin="miter" stroke-linecap="round" stroke-miterlimit="4" stroke-width="2.2857" d="M24.631 24.763c0.002-0.24 0.003-0.483 0.003-0.73 0-3.629-5.231-6.571-11.682-6.571s-11.683 2.942-11.683 6.571c0 3.629 0 6.571 11.683 6.571 3.258 0 5.608-0.229 7.302-0.638"></path>
</symbol>
<symbol id="icon-second-page" viewBox="0 0 32 32">
<path d="M31.779 15.67c-0.054-0.568-0.343-1.093-0.794-1.442-0.834-0.646-2.018-0.563-2.73 0.172l-5.119 4.368c-0.367-0.334-0.853-0.54-1.387-0.54h-7.19c-3.676-0.922-6.928 0-9.676 2.727l-0.315-0.288c-0.482-0.439-1.232-0.405-1.672 0.075l-2.411 2.64c-0.213 0.233-0.322 0.535-0.308 0.851s0.151 0.607 0.384 0.82l7.371 6.733c0.22 0.201 0.501 0.31 0.797 0.31 0.018 0 0.037-0.001 0.055-0.001 0.316-0.014 0.607-0.151 0.82-0.384l2.411-2.64c0.213-0.234 0.323-0.536 0.308-0.851s-0.151-0.607-0.384-0.82l-0.176-0.161c0.643-0.504 1.377-0.789 2.059-0.789h6.088c2.056 0 4.015-0.885 5.375-2.427l5.985-6.788c0.377-0.427 0.563-0.998 0.509-1.566zM11.495 28.598l-2.411 2.64c-0.087 0.095-0.205 0.15-0.333 0.156-0.127 0.007-0.251-0.038-0.346-0.125l-7.371-6.734c-0.196-0.179-0.209-0.483-0.031-0.679l2.411-2.64c0.178-0.196 0.483-0.21 0.679-0.031l7.37 6.734c0.095 0.086 0.15 0.205 0.156 0.333s-0.039 0.252-0.125 0.346zM30.743 16.771l-5.985 6.788c-1.227 1.391-2.994 2.189-4.848 2.189h-6.089c-0.885 0-1.791 0.36-2.582 1.013l-5.837-5.333c2.596-2.568 5.551-3.393 9.026-2.509l7.321 0.011c0.751 0 1.362 0.611 1.362 1.362s-0.611 1.362-1.362 1.362l-7.132 1.058c-0.192 0.029-0.324 0.207-0.296 0.399 0.026 0.174 0.176 0.3 0.347 0.3 0.017 0 0.035-0.001 0.052-0.004l7.056-1.050c1.126-0.014 2.038-0.935 2.038-2.064 0-0.351-0.088-0.682-0.244-0.972l5.165-4.409c0.486-0.5 1.268-0.555 1.82-0.129 0.302 0.234 0.489 0.573 0.525 0.953s-0.084 0.748-0.337 1.034z"></path>
<path d="M15.982 16.266c4.064 0 7.371-3.306 7.371-7.371s-3.307-7.371-7.371-7.371c-4.064 0-7.371 3.306-7.371 7.371s3.307 7.371 7.371 7.371zM15.982 2.227c3.677 0 6.668 2.991 6.668 6.668s-2.991 6.668-6.668 6.668c-3.677 0-6.668-2.991-6.668-6.668s2.992-6.668 6.668-6.668z"></path>
<path d="M12.873 11.098l-1.102-3.896h0.673l0.818 3.044 0.885-3.044h0.59l0.879 3.044 0.818-3.044h0.673l-1.102 3.896h-0.74l-0.824-2.844-0.829 2.844h-0.74zM18.416 10.486h1.725v0.612h-2.365v-3.896h2.337v0.612h-1.697v1.013h1.558v0.607h-1.558v1.052z"></path>
</symbol>
<symbol id="icon-third-page" viewBox="0 0 39 32">
<path d="M33.464 16.246c-2.090-0.796-5.059-1.312-8.391-1.312v-2.133c3.552 0 6.818 0.546 9.239 1.466 1.208 0.461 2.262 1.033 3.030 1.726 0.771 0.693 1.331 1.579 1.331 2.615 0 1.039-0.558 1.922-1.331 2.618-0.771 0.691-1.822 1.265-3.030 1.724-2.421 0.922-5.689 1.466-9.239 1.466-3.552 0-6.818-0.544-9.239-1.466-1.208-0.459-2.262-1.033-3.030-1.724-0.771-0.695-1.33-1.579-1.33-2.618h2.267c0 0.271 0.141 0.634 0.63 1.075s1.265 0.89 2.312 1.289c2.092 0.796 5.057 1.31 8.391 1.31 3.332 0 6.301-0.514 8.391-1.31 1.047-0.399 1.82-0.847 2.312-1.289s0.63-0.804 0.63-1.075c0-0.271-0.141-0.634-0.63-1.073-0.492-0.444-1.265-0.892-2.312-1.289z"></path>
<path d="M12.607 18.489c0.301 0 0.589 0.112 0.801 0.312s0.332 0.471 0.332 0.754v6.635c0 0.273 0.141 0.636 0.63 1.075 0.492 0.444 1.265 0.892 2.312 1.291 2.092 0.794 5.057 1.31 8.391 1.31 3.332 0 6.301-0.516 8.391-1.31 1.047-0.399 1.82-0.847 2.312-1.291 0.49-0.439 0.63-0.802 0.63-1.073v-6.637c0-0.283 0.119-0.554 0.332-0.754s0.501-0.312 0.801-0.312 0.589 0.112 0.801 0.312c0.212 0.2 0.332 0.471 0.332 0.754v6.635c0 1.041-0.558 1.924-1.331 2.618s-1.822 1.265-3.030 1.726c-2.421 0.919-5.689 1.466-9.239 1.466-3.552 0-6.818-0.546-9.239-1.466-1.208-0.459-2.262-1.033-3.030-1.726-0.771-0.693-1.33-1.579-1.33-2.616v-6.637c0-0.283 0.119-0.554 0.332-0.754s0.501-0.312 0.801-0.312z"></path>
<path d="M17.594 30.349h2.267v-7.949h-2.267v7.949zM27.567 29.867h2.267v-6.4h-2.267v6.4zM3.038 4.734c-0.49 0.439-0.63 0.802-0.63 1.073s0.141 0.634 0.63 1.075c0.49 0.442 1.265 0.89 2.312 1.289 2.092 0.796 5.057 1.31 8.391 1.31 3.332 0 6.301-0.514 8.391-1.31 1.047-0.399 1.82-0.847 2.312-1.289s0.63-0.804 0.63-1.075c0-0.271-0.141-0.634-0.63-1.073-0.492-0.444-1.265-0.892-2.312-1.291-2.092-0.794-5.059-1.31-8.391-1.31s-6.301 0.516-8.391 1.31c-1.047 0.399-1.82 0.847-2.312 1.291zM4.502 1.466c2.421-0.919 5.689-1.466 9.239-1.466 3.552 0 6.818 0.546 9.239 1.466 1.208 0.461 2.262 1.033 3.030 1.726 0.771 0.693 1.331 1.579 1.331 2.615 0 1.039-0.558 1.922-1.331 2.618-0.771 0.691-1.822 1.265-3.030 1.724-2.421 0.922-5.689 1.466-9.239 1.466-3.552 0-6.818-0.544-9.239-1.466-1.208-0.459-2.262-1.033-3.030-1.724-0.771-0.695-1.33-1.579-1.33-2.618 0-1.037 0.558-1.92 1.33-2.615s1.822-1.265 3.030-1.726z"></path>
<path d="M1.275 5.69c0.301 0 0.589 0.112 0.801 0.312s0.332 0.471 0.332 0.754v6.635c0 0.273 0.141 0.636 0.63 1.075 0.492 0.444 1.265 0.892 2.312 1.291 2.092 0.794 5.057 1.31 8.391 1.31 3.332 0 6.301-0.516 8.391-1.31 1.047-0.399 1.82-0.847 2.312-1.291 0.49-0.44 0.63-0.802 0.63-1.073v-6.637c0-0.283 0.119-0.554 0.332-0.754s0.501-0.312 0.801-0.312 0.589 0.112 0.801 0.312c0.212 0.2 0.332 0.471 0.332 0.754v6.635c0 1.041-0.558 1.924-1.331 2.618s-1.822 1.267-3.030 1.726c-2.421 0.919-5.689 1.466-9.239 1.466-3.552 0-6.818-0.546-9.239-1.466-1.208-0.461-2.262-1.032-3.030-1.726-0.771-0.691-1.33-1.579-1.33-2.616v-6.637c0-0.283 0.119-0.554 0.332-0.754s0.501-0.312 0.801-0.312z"></path>
<path d="M6.261 17.067h2.267v-7.226h-2.267v7.226zM16.234 17.067h2.267v-6.4h-2.267v6.4z"></path>
</symbol>
<symbol id="icon-eye" viewBox="0 0 46 32">
<path d="M29.445 17.41c-0.234 0.53-0.528 1.027-0.871 1.482-1.308 1.74-3.346 2.858-5.636 2.858-3.58 0-7.161-2.702-7.161-6.82s3.206-7.457 7.161-7.457 7.161 3.339 7.161 7.457c0 0.475-0.234 1.531-0.654 2.48zM22.938 18.022c0.895 0 1.713-0.342 2.343-0.908 0.759-0.683 1.093-1.693 1.093-2.183 0-2.059-1.457-3.729-3.436-3.729s-3.597 1.667-3.597 3.726c0 1.422 1.618 3.094 3.597 3.094z"></path>
<path d="M0.162 15.433c-0.028-0.035 0.028 0.036 0 0-0.219-0.3-0.213-0.656 0.001-0.959 0.016-0.022 0.032-0.045 0.048-0.069 6.437-9.403 14.42-14.405 22.671-14.405 8.243 0 16.218 4.989 22.649 14.373 0.122 0.178 0.184 0.361 0.184 0.58 0 0.23-0.072 0.423-0.2 0.61-6.428 9.367-14.397 14.345-22.632 14.345-8.273 0-16.276-5.026-22.72-14.475zM5.168 13.815c-0.529 0.658-0.529 1.618-0 2.276 5.512 6.857 11.719 10.078 17.714 10.078s12.203-3.221 17.715-10.078c0.529-0.659 0.529-1.618 0-2.277-5.512-6.857-11.719-10.076-17.715-10.076s-12.202 3.219-17.714 10.076z"></path>
</symbol>
<symbol id="icon-arrow-up" viewBox="0 0 26 32">
<path fill="#cfcfcf" style="fill: var(--color1, #cfcfcf)" d="M12.127 0.49c0.256-0.255 0.602-0.399 0.964-0.399s0.708 0.143 0.964 0.399l10.909 10.909c0.134 0.125 0.241 0.275 0.316 0.443s0.115 0.348 0.118 0.531c0.003 0.183-0.030 0.365-0.099 0.535s-0.171 0.324-0.3 0.454c-0.129 0.129-0.284 0.232-0.454 0.3s-0.352 0.102-0.535 0.099c-0.183-0.003-0.364-0.043-0.531-0.118s-0.318-0.182-0.443-0.316l-8.582-8.582v25.8c0 0.362-0.144 0.708-0.399 0.964s-0.603 0.399-0.964 0.399-0.708-0.143-0.964-0.399c-0.256-0.256-0.399-0.602-0.399-0.964v-25.8l-8.582 8.582c-0.125 0.134-0.275 0.241-0.443 0.316s-0.348 0.115-0.531 0.118c-0.183 0.003-0.365-0.030-0.535-0.099s-0.324-0.171-0.454-0.3c-0.129-0.13-0.232-0.284-0.3-0.454s-0.102-0.352-0.099-0.535c0.003-0.183 0.043-0.364 0.118-0.531s0.182-0.318 0.316-0.443l10.909-10.909z"></path>
</symbol>
</defs>
</svg>
